<svg id="visual" viewBox="0 0 900 600" width="900" height="600" xmlns="http://www.w3.org/2000/svg" xmlns:xlink="http://www.w3.org/1999/xlink" version="1.1"><rect x="0" y="0" width="900" height="600" fill="#003C43"></rect><defs><linearGradient id="grad1_0" x1="33.3%" y1="0%" x2="100%" y2="100%"><stop offset="20%" stop-color="#77b0aa" stop-opacity="1"></stop><stop offset="80%" stop-color="#77b0aa" stop-opacity="1"></stop></linearGradient></defs><defs><linearGradient id="grad1_1" x1="33.3%" y1="0%" x2="100%" y2="100%"><stop offset="20%" stop-color="#77b0aa" stop-opacity="1"></stop><stop offset="80%" stop-color="#003c43" stop-opacity="1"></stop></linearGradient></defs><defs><linearGradient id="grad2_0" x1="0%" y1="0%" x2="66.7%" y2="100%"><stop offset="20%" stop-color="#77b0aa" stop-opacity="1"></stop><stop offset="80%" stop-color="#77b0aa" stop-opacity="1"></stop></linearGradient></defs><defs><linearGradient id="grad2_1" x1="0%" y1="0%" x2="66.7%" y2="100%"><stop offset="20%" stop-color="#003c43" stop-opacity="1"></stop><stop offset="80%" stop-color="#77b0aa" stop-opacity="1"></stop></linearGradient></defs><g transform="translate(900, 0)"><path d="M0 162.2C-34.5 161.6 -69 160.9 -81.1 140.5C-93.2 120.2 -82.9 80.2 -92.7 53.5C-102.4 26.8 -132.3 13.4 -162.2 0L0 0Z" fill="#3d7475"></path><path d="M0 81.1C-17.3 80.8 -34.5 80.4 -40.6 70.3C-46.6 60.1 -41.4 40.1 -46.3 26.8C-51.2 13.4 -66.2 6.7 -81.1 0L0 0Z" fill="#77b0aa"></path></g><g transform="translate(0, 600)"><path d="M0 -162.2C20.9 -145.3 41.7 -128.3 67.5 -116.9C93.3 -105.5 123.9 -99.7 140.5 -81.1C157.1 -62.6 159.7 -31.3 162.2 0L0 0Z" fill="#3d7475"></path><path d="M0 -81.1C10.4 -72.6 20.9 -64.2 33.7 -58.5C46.6 -52.8 62 -49.8 70.3 -40.6C78.6 -31.3 79.8 -15.6 81.1 0L0 0Z" fill="#77b0aa"></path></g></svg>